<svg viewBox="0 0 912 905" xmlns="http://www.w3.org/2000/svg">
<g id="Hero Image">
<g id="sass 1" clip-path="url(#clip0_4_47)">
<path id="Vector" d="M547.529 774.952C538.69 775.803 531.224 778.615 525.087 782.351C522.291 777.885 519.549 774.009 518.877 770.99C518.111 767.483 517.371 765.363 517.531 761.077C517.69 756.789 519.615 750.553 519.57 750.061C519.48 749.622 518.79 747.498 513.697 747.91C508.604 748.322 504.3 749.755 503.927 751.13C503.553 752.506 502.842 755.65 502.485 758.862C502.016 763.575 494.214 780.826 489.709 789.929C487.676 786.734 485.926 783.912 485.415 781.573C484.649 778.066 483.909 775.946 484.069 771.66C484.228 767.372 486.154 761.137 486.109 760.644C486.019 760.205 485.329 758.082 480.236 758.494C475.142 758.906 470.839 760.339 470.466 761.714C470.092 763.089 469.834 766.292 469.024 769.446C468.263 772.595 458.394 801.113 455.83 808.549C454.53 812.343 453.361 815.38 452.502 817.445C451.643 819.51 452.466 817.598 452.385 817.804C451.647 819.56 451.238 820.541 451.238 820.541L451.242 820.591C450.662 821.885 450.028 823.134 449.682 823.166C449.435 823.188 448.642 819.931 449.071 815.322C450.037 805.646 453.14 790.411 453.042 789.873C453.02 789.627 453.622 786.939 449.796 785.944C446.069 784.941 444.986 787.274 444.689 787.301C444.392 787.328 444.217 788.139 444.217 788.139C444.217 788.139 446.705 771.072 435.045 772.128C427.733 772.791 418.373 781.638 414.039 789.334C411.033 791.345 404.644 795.6 397.882 800.138C395.299 801.863 392.626 803.695 390.087 805.365L389.491 804.822C373.998 791.073 346.898 782.798 346.154 762.495C345.884 755.117 346.698 735.518 391.806 707.783C428.75 685.059 460.206 687.525 466.654 698.765C475.83 714.825 454.443 748.162 414.632 756.29C399.472 759.403 390.883 754.219 388.657 752.185C386.322 750.062 386.017 749.99 385.267 750.505C384.045 751.312 385.023 753.31 385.628 754.497C387.095 757.494 392.536 762.565 401.185 764.564C408.765 766.311 426.871 766.012 447.851 755.665C471.355 744.046 488.01 716.205 480.449 694.882C472.754 673.172 435.137 669.228 401.327 684.762C381.196 694.038 359.711 707.611 344.876 724.207C327.233 743.89 325.589 759.838 327.463 766.226C334.063 789.028 367.498 801.251 381.358 811.273C380.747 811.675 380.185 812.074 379.668 812.419C373.531 816.155 350.231 831.134 345.328 845.191C339.796 861.093 348.795 871.357 354.265 872.352C371.182 875.44 387.334 865.679 395.246 851.3C403.109 836.925 400.428 819.431 395.501 811.78L395.325 811.498L400.097 808.084C403.184 805.867 406.235 803.802 408.912 802.019C407.72 806.449 407.043 811.628 407.12 819.073C407.215 827.809 411.79 838.721 416.885 842.731C419.135 844.464 421.609 844.29 423.141 844.151C428.576 843.659 430.64 838.95 432.871 833.333C435.636 826.475 437.913 818.618 437.913 818.618C437.913 818.618 436.07 839.502 446.198 838.584C449.904 838.249 453.176 833.133 454.633 830.517L454.637 830.566C454.637 830.566 454.722 830.409 454.889 830.046C455.068 829.722 455.238 829.392 455.397 829.057L455.388 828.958C456.638 826.262 459.417 820.098 463.478 809.942C468.717 796.849 473.424 780.623 473.424 780.623C473.424 780.623 474.365 784.413 476.765 790.555C478.19 794.202 480.933 798.077 483.122 801.903C481.828 804.106 481.046 805.37 481.046 805.37L481.099 805.415C480.057 807.099 478.874 808.896 477.643 810.696C473.148 817.165 467.742 824.561 467.13 826.604C466.401 829.004 466.755 830.711 468.708 831.926C470.131 832.79 472.52 832.772 475.022 832.347C479.541 831.639 482.6 830.22 484.119 829.386C486.509 828.275 489.204 826.69 491.743 824.472C496.353 820.379 498.898 814.931 497.977 808.059C497.485 804.279 495.91 800.645 494.057 797.236C494.444 796.555 494.831 795.874 495.213 795.144C501.987 783.053 506.881 769.991 506.881 769.991C506.881 769.991 507.822 773.781 510.222 779.923C511.45 783.041 513.645 786.37 515.638 789.667C508.866 796.292 504.896 803.607 503.726 808.284C501.57 816.926 504.186 820.514 508.565 821.011C510.527 821.231 513.214 820.093 515.208 819.018C517.702 817.948 520.685 816.236 523.359 813.858C527.969 809.764 532.252 804.259 531.385 797.431C530.951 794.291 529.829 791.263 528.425 788.409C534.418 785.283 542.337 783.075 552.676 783.38C574.895 783.95 580.484 797.255 580.162 803.047C579.84 808.84 575.531 812.41 574.089 813.534C572.642 814.609 572.179 814.999 572.39 815.675C572.681 816.693 573.368 816.58 574.684 816.263C576.486 815.801 585.822 810.534 585.261 799.953C584.626 786.346 570.391 772.731 547.529 774.952ZM383.131 847.33C376.587 855.922 366.632 859.855 362.052 857.686C357.113 855.401 357.882 843.557 366.062 834.32C371.032 828.703 377.669 823.332 382.049 820.004C383.029 819.269 384.525 818.19 386.3 816.886C386.578 816.663 386.767 816.546 386.767 816.546C387.095 816.317 387.468 816.035 387.841 815.753C392.241 827.477 390.034 838.308 383.131 847.33ZM432.979 806.496C431.018 812.884 427.115 829.185 423.823 828.589C420.989 828.101 418.224 816.279 421.055 804.098C422.491 797.956 426.048 790.48 428.268 787.497C431.869 782.699 436.082 780.827 437.335 782.551C438.834 784.801 434.212 802.509 432.979 806.496ZM478.696 823.418C477.659 824.059 476.706 824.543 476.235 824.288C475.871 824.122 476.594 823.311 476.594 823.311C476.594 823.311 481.547 816.95 483.475 814.043C484.568 812.355 485.885 810.397 487.278 808.184L487.332 808.775C487.975 815.871 481.585 821.219 478.696 823.418ZM511.794 812.669C510.95 812.149 510.884 810.317 513.033 804.359C513.866 801.998 515.893 797.989 519.668 794.02C520.296 795.454 520.722 796.855 520.793 798.191C521.548 807.065 515.523 810.94 511.794 812.669Z" fill="#CF649A"/>
</g>
<g id="next-js 1" clip-path="url(#clip1_4_47)">
<path id="Vector_2" d="M148.703 395.772C148.181 395.874 146.523 396.214 145.027 396.489C110.572 403.2 79.9249 425.314 62.258 456.278C52.4178 473.495 46.9398 492.442 46.1443 511.995C45.8544 518.822 45.939 520.821 46.8766 529.94C47.8141 539.059 48.1381 541.034 49.8109 547.659C61.1921 592.954 97.8834 628.222 143.731 637.973C151.941 639.717 160.498 640.603 170.132 640.677C173.884 640.702 189.921 639.054 193.589 638.265C209.846 634.756 223.358 629.254 236.375 620.829C238.371 619.535 238.748 619.206 238.436 618.996C238.23 618.872 228.017 607.756 215.75 594.31L193.451 569.875L165.185 536.087C149.633 517.513 136.849 502.331 136.753 502.341C136.655 502.327 138.217 518.469 140.195 538.173C143.669 572.671 143.788 574.062 143.441 574.92C142.939 576.157 142.509 576.684 141.558 577.314C140.832 577.776 140.169 577.917 136.555 578.288L132.414 578.714L131.242 578.133C130.477 577.752 129.889 577.208 129.458 576.551L128.845 575.525L123.959 527.53L119.094 479.509L119.74 478.499C120.072 477.957 120.819 477.227 121.361 476.857C122.293 476.277 122.672 476.19 126.812 475.764C131.695 475.262 132.529 475.37 133.94 476.628C134.338 476.974 149.68 495.618 168.051 518.087C186.422 540.556 211.539 571.232 223.875 586.291L246.282 613.666L247.197 612.919C255.305 606.377 263.669 597.39 270.084 588.265C283.742 568.889 291.493 546.177 292.467 522.711C292.757 515.884 292.672 513.885 291.735 504.766C290.797 495.647 290.473 493.672 288.8 487.047C277.419 441.752 240.728 406.484 194.88 396.733C186.793 395.001 178.283 394.11 168.84 394.016C166.518 394.013 150.67 395.377 148.703 395.772ZM206.437 464.675C207.645 465.132 208.692 466.137 209.145 467.251C209.4 467.854 210.816 481.157 213.852 511.153L218.205 554.196L209.421 543.343L200.614 532.493L197.398 501.21C195.318 480.984 194.245 469.605 194.332 469.04C194.577 467.66 195.307 466.521 196.392 465.781C197.321 465.177 197.675 465.092 201.433 464.706C204.976 464.342 205.603 464.326 206.437 464.675Z" fill="black"/>
<path id="Vector_3" d="M245.139 614.316C244.356 614.929 244.129 615.315 244.829 614.832C245.324 614.466 246.119 613.732 245.973 613.722C245.901 613.73 245.519 614.011 245.139 614.316ZM243.598 615.563C243.202 615.942 243.204 615.966 243.704 615.649C243.976 615.476 244.199 615.284 244.194 615.236C244.174 615.044 244.059 615.104 243.598 615.563ZM242.475 616.404C242.079 616.783 242.082 616.807 242.581 616.49C242.853 616.317 243.076 616.125 243.071 616.077C243.051 615.885 242.936 615.945 242.475 616.404ZM241.352 617.245C240.956 617.624 240.959 617.648 241.458 617.331C241.731 617.158 241.953 616.966 241.948 616.918C241.928 616.726 241.813 616.787 241.352 617.245ZM239.632 618.39C238.772 618.962 238.839 619.148 239.702 618.6C240.087 618.343 240.376 618.095 240.371 618.048C240.353 617.88 240.332 617.906 239.632 618.39Z" fill="black"/>
</g>
<g id="react-2 1" clip-path="url(#clip2_4_47)">
<g id="Group">
<path id="Vector_4" d="M546.883 465.568C545.418 451.317 526.22 439.643 498.053 434.075C501.487 405.54 496.406 383.641 483.335 377.806C480.32 376.432 476.913 375.985 473.281 376.358L474.286 386.136C476.299 385.929 477.959 386.158 479.392 386.764C485.695 389.572 489.615 402.329 489.324 419.286C489.267 423.457 488.925 427.879 488.418 432.407C479.625 431.184 470.094 430.524 460.14 430.484C453.398 422.98 446.515 416.243 439.682 410.432C452.581 395.679 465.223 387.024 474.325 386.088L473.32 376.31C461.286 377.547 446.417 387.761 432.021 404.307C414.569 391.124 397.941 384.237 385.908 385.474L386.913 395.252C395.971 394.321 410.149 400.175 425.771 411.906C420.308 418.982 414.934 426.934 409.948 435.645C400.167 437.714 390.969 440.299 382.613 443.329C381.156 439.048 379.975 434.871 379.031 430.847C375.252 414.309 376.451 401.025 382.002 396.953C383.234 396.029 384.904 395.503 386.917 395.296L385.912 385.518C382.236 385.896 378.992 387.027 376.275 388.99C364.709 397.358 364.229 419.784 373.432 446.932C347.079 458.149 330.741 473.432 332.202 487.639C333.667 501.89 352.865 513.564 381.032 519.132C377.598 547.667 382.679 569.566 395.75 575.401C398.765 576.774 402.172 577.222 405.848 576.844C417.881 575.607 432.751 565.393 447.147 548.847C464.599 562.03 481.226 568.917 493.26 567.68C496.936 567.302 500.18 566.171 502.897 564.207C514.463 555.84 514.943 533.413 505.74 506.266C532.01 495.102 548.344 479.774 546.883 465.568ZM486.902 442.178C485.865 448.001 484.451 454.04 482.775 460.106C480.621 456.782 478.378 453.468 475.961 450.172C473.587 446.871 471.092 443.671 468.605 440.559C474.913 440.841 481.025 441.365 486.902 442.178ZM471.662 490.937C468.857 497.208 465.933 503.18 462.838 508.771C456.376 510.012 449.8 510.998 443.149 511.682C436.541 512.361 429.902 512.733 423.372 512.873C419.203 508.029 415.086 502.824 411.069 497.3C407.153 491.897 403.534 486.376 400.173 480.784C402.282 474.629 404.741 468.439 407.432 462.357C410.237 456.087 413.161 450.114 416.256 444.523C422.718 443.283 429.294 442.296 435.945 441.613C442.553 440.933 449.192 440.561 455.722 440.421C459.891 445.266 464.008 450.47 468.025 455.995C471.941 461.397 475.56 466.918 478.921 472.51C476.768 478.67 474.353 484.856 471.662 490.937ZM485.21 483.784C488.177 489.416 490.794 495.085 493.043 500.614C487.454 502.607 481.537 504.412 475.375 505.976C477.172 502.379 478.96 498.695 480.607 494.936C482.26 491.221 483.776 487.476 485.21 483.784ZM445.648 535.131C441.146 531.34 436.594 527.067 432.041 522.351C435.997 522.121 440.036 521.839 444.106 521.421C448.219 520.998 452.28 520.492 456.239 519.863C452.828 525.398 449.241 530.508 445.648 535.131ZM410.436 512.652C404.128 512.37 398.016 511.846 392.139 511.033C393.176 505.21 394.59 499.171 396.266 493.105C398.42 496.429 400.663 499.743 403.08 503.04C405.497 506.336 407.949 509.54 410.436 512.652ZM433.393 418.08C437.895 421.871 442.447 426.144 447 430.86C443.044 431.09 439.005 431.372 434.935 431.791C430.822 432.213 426.761 432.72 422.802 433.348C426.213 427.813 429.8 422.703 433.393 418.08ZM403.666 447.235C401.869 450.832 400.081 454.517 398.434 458.275C396.781 461.99 395.26 465.691 393.827 469.384C390.86 463.751 388.243 458.082 385.994 452.553C391.587 450.604 397.504 448.799 403.666 447.235ZM369.709 506.205C353.537 501.176 342.624 493.525 341.916 486.64C341.208 479.756 350.332 470 365.147 461.83C368.743 459.821 372.708 457.951 376.812 456.156C380.19 464.493 384.392 473.101 389.404 481.847C386.315 491.381 383.992 500.615 382.421 509.417C377.949 508.504 373.682 507.436 369.709 506.205ZM399.693 566.443C393.39 563.635 389.469 550.877 389.76 533.92C389.818 529.749 390.159 525.327 390.667 520.8C399.46 522.023 408.991 522.682 418.945 522.722C425.686 530.227 432.57 536.963 439.403 542.775C426.503 557.527 413.861 566.183 404.759 567.119C402.786 567.277 401.082 567.054 399.693 566.443ZM500.054 522.359C503.833 538.898 502.634 552.182 497.082 556.253C495.851 557.177 494.18 557.704 492.167 557.911C483.109 558.842 468.931 552.988 453.309 541.256C458.773 534.181 464.146 526.228 469.132 517.518C478.913 515.449 488.111 512.864 496.467 509.834C497.929 514.159 499.154 518.331 500.054 522.359ZM513.894 491.381C510.298 493.39 506.333 495.26 502.229 497.056C498.851 488.718 494.649 480.11 489.637 471.364C492.726 461.83 495.049 452.596 496.62 443.794C501.092 444.708 505.359 445.776 509.376 447.002C525.547 452.03 536.461 459.682 537.169 466.566C537.833 473.455 528.709 483.211 513.894 491.381Z" fill="#61DAFB"/>
<path id="Vector_5" d="M441.559 496.646C452.603 495.511 460.634 485.619 459.496 474.552C458.359 463.485 448.483 455.434 437.438 456.569C426.394 457.705 418.363 467.597 419.501 478.664C420.639 489.731 430.514 497.782 441.559 496.646Z" fill="#61DAFB"/>
</g>
</g>
<g id="html-1" clip-path="url(#clip3_4_47)">
<path id="Vector_6" d="M64.9738 295.668L24.6127 78.4669L237.737 57.0002L241.345 277.535L157.074 311.733L64.9738 295.668Z" fill="#E34F26"/>
<path id="Vector_7" d="M154.899 290.58L134.101 88.2911L221.879 79.5631L224.839 262.158L154.899 290.58Z" fill="#EF652A"/>
<path id="Vector_8" d="M202.915 132.286L202.651 105.293L67.6666 119.171L83.5522 200.378L176.711 190.8L176.652 226.139L147.648 237.284L116.469 231.583L112.716 210.888L85.9506 213.64L93.9873 255.867L150.561 265.638L204.402 244.515L203.311 160.6L105.475 170.659L99.8119 142.886L202.915 132.286Z" fill="white"/>
</g>
<g id="logo-javascript" clip-path="url(#clip4_4_47)">
<path id="Vector_9" d="M578.898 21.0667L825.621 -4.29913L850.987 242.424L604.263 267.79L578.898 21.0667Z" fill="#F0DB4F"/>
<path id="Vector_10" d="M824.744 185.657C821.781 174.586 813.469 165.889 790.821 159.306C782.913 156.611 774.238 154.991 771.14 149.526C769.906 146.288 769.596 144.424 769.951 142.349C770.897 135.639 778.497 132.796 784.881 134.035C789.006 134.962 793.098 137.647 795.876 142.314C805.815 134.325 805.797 134.374 812.744 128.872C809.59 124.93 807.935 123.133 805.967 121.511C798.829 115.016 789.726 112.231 775.801 113.947C773.416 114.5 771.011 115.079 768.627 115.632C761.842 118.107 755.581 122.448 752.192 127.75C741.875 142.202 747.59 165.054 762.783 173.138C777.865 182.206 798.679 182.483 802.316 192.04C806.109 203.808 795.112 208.873 783.642 208.654C775.114 207.777 770.034 204.01 764.222 196.81C755.531 203.107 755.531 203.107 746.595 209.548C749.353 214.242 751.95 216.226 756.165 220.106C775.9 236.398 820.533 230.909 825.733 202.644C825.964 201.672 827.476 195.165 824.744 185.657ZM724.682 120.671L701.605 123.044C703.654 142.979 705.596 162.783 707.645 182.718C708.95 195.406 710.802 206.971 709.105 210.748C706.449 218.107 697.612 218.139 693.485 217.188C689.223 215.612 686.867 212.986 684.062 209.222C683.288 208.14 682.703 207.3 682.532 207.246C676.663 211.713 670.82 216.2 664.951 220.667C668.729 226.749 673.897 231.835 680.155 234.841C689.492 239.214 701.479 239.617 713.547 235.508C721.35 232.336 727.793 226.768 730.668 219.006C734.926 208.78 732.595 197.17 731.214 184.205C729.157 163.039 726.864 141.896 724.682 120.671Z" fill="#323330"/>
</g>
<g id="css-3" clip-path="url(#clip5_4_47)">
<path id="Vector_11" d="M340.631 267.163L300.267 52.1328L516.175 30.3848L519.307 248.801L433.874 282.864L340.631 267.163Z" fill="#1B73BA"/>
<path id="Vector_12" d="M431.721 261.918L411.136 61.6132L500.06 52.7683L502.625 233.61L431.721 261.918Z" fill="#1C88C7"/>
<path id="Vector_13" d="M480.586 80.3489L343.838 94.4022L350.233 120.204L415.125 113.535L354.037 147.009L360.34 171.938L454.42 162.27L454.644 197.967L423.418 207.351L393.782 203.047L389.496 183.201L362.976 185.926L370.821 227.311L429.313 237.028L482.087 214.406L480.663 132.083L423.028 138.006L483.215 105.95L480.586 80.3489Z" fill="white"/>
</g>
<g id="typescript" clip-path="url(#clip6_4_47)">
<path id="Vector_14" d="M623.7 456.838L611.017 333.477L857.74 308.111L883.106 554.834L636.382 580.2" fill="#007ACC"/>
<path id="Vector_15" d="M677.838 451.709L678.872 461.763L710.946 458.465L720.331 549.753L743.091 547.413L733.706 456.125L765.78 452.827L764.765 442.959C764.195 437.407 763.732 432.905 763.472 432.807C763.453 432.621 743.894 434.57 720.147 437.012L676.989 441.636L678.029 451.751L677.838 451.709ZM820.927 426.588C827.371 427.421 832.474 429.764 837.254 433.823C839.79 436.055 843.626 440.024 843.987 441.109C844.025 441.479 834.097 449.793 828.032 454.468C827.805 454.679 826.71 453.731 825.558 452.229C821.881 447.995 818.409 446.357 813.252 446.513C805.799 446.781 801.264 451.174 801.93 457.65C802.133 459.624 802.617 460.696 803.523 462.224C805.537 465.445 808.83 467.164 818.822 470.375C837.242 476.148 845.405 480.358 850.766 487.037C856.834 494.517 859.299 506.979 856.754 516.778C853.865 527.484 844.959 535.444 831.439 539.14C827.198 540.324 817.316 541.215 812.607 540.889C802.548 540.053 792.604 536.089 786.153 530.332C783.617 528.099 778.559 521.95 778.761 521.493L780.953 519.771L789.653 513.454L796.205 508.666L798.03 510.66C800.396 513.658 805.404 517.507 808.208 518.715C816.652 522.023 827.327 520.364 832.137 515.008C834.204 512.676 834.962 510.354 834.645 507.27C834.353 504.433 833.789 503.182 832.148 501.169C829.895 498.658 825.719 496.843 814.109 493.05C800.783 488.935 795 486.039 789.397 481.254C786.168 478.345 783.002 473.621 781.344 469.616C780.051 466.133 778.842 457.406 779.344 453.802C780.728 441.193 789.154 431.6 802.224 427.763C806.452 426.455 816.668 425.779 821.038 426.452L820.927 426.588Z" fill="white"/>
</g>
<g id="tailwind-css-2 1" clip-path="url(#clip7_4_47)">
<path id="Vector_16" d="M760.77 656.901C725.502 660.527 705.267 680.367 700.063 716.419C711.483 697.485 726.235 689.311 744.319 691.89C754.638 693.362 762.576 699.899 771.365 707.133C785.679 718.916 802.246 732.554 835.027 729.184C870.291 725.558 890.529 705.718 895.73 669.662C884.313 688.596 869.561 696.774 851.474 694.195C841.158 692.723 833.22 686.185 824.431 678.952C810.117 667.169 793.547 653.531 760.77 656.901V656.901ZM702.773 742.781C667.509 746.407 647.271 766.247 642.07 802.302C653.487 783.368 668.239 775.191 686.326 777.773C696.642 779.248 704.58 785.783 713.369 793.013C727.683 804.796 744.253 818.437 777.031 815.067C812.299 811.441 832.533 791.601 837.737 755.545C826.317 774.48 811.565 782.657 793.481 780.075C783.162 778.607 775.223 772.066 766.435 764.835C752.121 753.052 735.554 739.411 702.773 742.781V742.781Z" fill="#06B6D4"/>
</g>
</g>
<defs>
<clipPath id="clip0_4_47">
<rect width="254" height="190" fill="white" transform="translate(319.992 685.971) rotate(-5.17759)"/>
</clipPath>
<clipPath id="clip1_4_47">
<rect width="246.414" height="246.414" fill="white" transform="translate(34.1406 407.357) rotate(-5.87)"/>
</clipPath>
<clipPath id="clip2_4_47">
<rect width="215.813" height="246.414" fill="white" transform="translate(319.599 365.056) rotate(-5.87)"/>
</clipPath>
<clipPath id="clip3_4_47">
<rect width="214.203" height="246.414" fill="white" transform="translate(24.5706 78.0574) rotate(-5.87)"/>
</clipPath>
<clipPath id="clip4_4_47">
<rect width="248.024" height="248.024" fill="white" transform="translate(578.898 21.0667) rotate(-5.87)"/>
</clipPath>
<clipPath id="clip5_4_47">
<rect width="217" height="244" fill="white" transform="translate(300.225 51.7256) rotate(-5.86759)"/>
</clipPath>
<clipPath id="clip6_4_47">
<rect width="248.024" height="248.024" fill="white" transform="translate(611.017 333.477) rotate(-5.87)"/>
</clipPath>
<clipPath id="clip7_4_47">
<rect width="266" height="159" fill="white" transform="translate(628.467 670.503) rotate(-5.87)"/>
</clipPath>
</defs>
</svg>
